<svg height="800" width="800" xmlns="http://www.w3.org/2000/svg" viewBox="0 0 512 512"><path d="M256 0C114.88 0 0 114.88 0 256s114.88 256 256 256 256-114.88 256-256S397.12 0 256 0zm0 490.667c-129.387 0-234.667-105.28-234.667-234.667S126.613 21.333 256 21.333 490.667 126.613 490.667 256 385.387 490.667 256 490.667z"/><path d="M377.6 246.507L186.027 150.72c-5.227-2.667-11.627-.533-14.293 4.8-.747 1.493-1.173 3.093-1.173 4.8v191.573c0 5.867 4.8 10.667 10.667 10.667 1.6 0 3.307-.427 4.8-1.173L377.6 265.493c5.227-2.667 7.36-9.067 4.8-14.293-1.067-2.027-2.773-3.733-4.8-4.693zM192 334.72V177.28L349.44 256 192 334.72z"/></svg>