<svg data-name="Layer 1" viewBox="0 0 100 100" xmlns="http://www.w3.org/2000/svg"><path d="M50 5a45 45 0 1045 45A45 45 0 0050 5zm0 88a43 43 0 1130.406-12.594A42.861 42.861 0 0150 93z"/><path d="M69.783 47.764l-28.815-18.36A2.547 2.547 0 0039.596 29a2.588 2.588 0 00-1.81.748A2.64 2.64 0 0037 31.64v36.72a2.64 2.64 0 00.785 1.893 2.588 2.588 0 001.81.748 2.547 2.547 0 001.373-.405l28.815-18.359a2.664 2.664 0 000-4.472zM68.71 50.55L39.893 68.909a.54.54 0 01-.297.09.591.591 0 01-.408-.173.634.634 0 01-.188-.467V31.64a.634.634 0 01.188-.467.591.591 0 01.408-.174.542.542 0 01.297.091l28.816 18.36a.664.664 0 010 1.099z"/></svg>